<svg width="115" height="118" viewBox="0 0 115 118" fill="none" xmlns="http://www.w3.org/2000/svg">
<path d="M0 20C0 8.9543 8.95431 0 20 0H67.3226C87.5239 0 92.4932 28.1075 73.5165 35.034C70.8753 35.998 68.4956 37.5652 66.5668 39.611L39.3097 68.52C37.4601 70.4817 36.0733 72.8328 35.2511 75.4007C28.9678 95.0252 0 90.501 0 69.8951V20Z" fill="#A6DC62"/>
<path d="M114.5 98C114.5 109.046 105.546 118 94.5 118H47.1774C26.9761 118 22.0068 89.8925 40.9835 82.966C43.6247 82.002 46.0044 80.4348 47.9332 78.389L75.1903 49.48C77.0399 47.5183 78.4267 45.1672 79.2489 42.5993C85.5322 22.9748 114.5 27.499 114.5 48.1049V98Z" fill="#DC7162"/>
</svg>
