<svg width="74" height="65" viewBox="0 0 74 65" fill="none" xmlns="http://www.w3.org/2000/svg">
<path d="M0.813537 16.08C-2.01463 8.2574 3.78049 0 12.0986 0H61.6528C70.0399 0 75.8398 8.38433 72.8816 16.2324L57.4278 57.2324C55.6661 61.9062 51.1937 65 46.1989 65H26.9217C21.8675 65 17.3551 61.8331 15.6366 57.08L0.813537 16.08Z" fill="#9A602A"/>
<path d="M50.0074 36C50.0074 47.0457 44.6349 50.5 38.0074 50.5C31.38 50.5 26.0074 47.0457 26.0074 36C26.0074 24.9543 34.5074 12 38.0074 8C38.0074 20 50.0074 24.9543 50.0074 36Z" fill="#BDE5FB"/>
<path d="M42 35.2235C42 38.8621 40.2091 40 38 40C35.7909 40 34 38.8621 34 35.2235C34 31.5849 36.8333 27.3176 38 26C38 29.9529 42 31.5849 42 35.2235Z" fill="#365BDE"/>
</svg>
