<svg width="87" height="26" viewBox="0 0 87 26" fill="none" xmlns="http://www.w3.org/2000/svg">
<path d="M0.890625 7.5625H5.51562V9.125C6.74479 8.42708 7.91667 7.9375 9.03125 7.65625C10.1562 7.375 11.2552 7.23438 12.3281 7.23438C13.7344 7.23438 15.0365 7.44271 16.2344 7.85938C17.4323 8.26562 18.4688 8.875 19.3438 9.6875C20.2188 10.5 20.901 11.5156 21.3906 12.7344C21.8906 13.9427 22.1406 15.3438 22.1406 16.9375V26H17.5312V17.6875C17.5312 16.6771 17.3854 15.776 17.0938 14.9844C16.8125 14.1823 16.401 13.5104 15.8594 12.9688C15.3281 12.4167 14.6771 12 13.9062 11.7188C13.1458 11.4271 12.2917 11.2812 11.3438 11.2812C10.8438 11.2812 10.3281 11.3333 9.79688 11.4375C9.27604 11.5417 8.76042 11.6927 8.25 11.8906C7.75 12.0781 7.26562 12.3177 6.79688 12.6094C6.32812 12.8906 5.90104 13.2135 5.51562 13.5781V26H0.890625V7.5625ZM30.2656 5.04688C29.8073 5.04688 29.3906 4.98438 29.0156 4.85938C28.651 4.72396 28.3385 4.54688 28.0781 4.32812C27.8177 4.09896 27.6146 3.83854 27.4688 3.54688C27.3333 3.24479 27.2656 2.92708 27.2656 2.59375C27.2656 2.25 27.3333 1.93229 27.4688 1.64062C27.6146 1.33854 27.8177 1.07812 28.0781 0.859375C28.3385 0.640625 28.651 0.46875 29.0156 0.34375C29.3906 0.208333 29.8073 0.140625 30.2656 0.140625C30.7344 0.140625 31.151 0.208333 31.5156 0.34375C31.8906 0.46875 32.2083 0.640625 32.4688 0.859375C32.7292 1.07812 32.9271 1.33854 33.0625 1.64062C33.2083 1.93229 33.2812 2.25 33.2812 2.59375C33.2812 2.92708 33.2083 3.24479 33.0625 3.54688C32.9271 3.83854 32.7292 4.09896 32.4688 4.32812C32.2083 4.54688 31.8906 4.72396 31.5156 4.85938C31.151 4.98438 30.7344 5.04688 30.2656 5.04688ZM27.9531 7.5625H32.5781V26H27.9531V7.5625ZM41.2969 11.0312H36.8438V7.5625H41.2969V1.82812H45.9219V7.5625H50.375V11.0312H45.9219V26H41.2969V11.0312ZM56.9219 5.04688C56.4635 5.04688 56.0469 4.98438 55.6719 4.85938C55.3073 4.72396 54.9948 4.54688 54.7344 4.32812C54.474 4.09896 54.2708 3.83854 54.125 3.54688C53.9896 3.24479 53.9219 2.92708 53.9219 2.59375C53.9219 2.25 53.9896 1.93229 54.125 1.64062C54.2708 1.33854 54.474 1.07812 54.7344 0.859375C54.9948 0.640625 55.3073 0.46875 55.6719 0.34375C56.0469 0.208333 56.4635 0.140625 56.9219 0.140625C57.3906 0.140625 57.8073 0.208333 58.1719 0.34375C58.5469 0.46875 58.8646 0.640625 59.125 0.859375C59.3854 1.07812 59.5833 1.33854 59.7188 1.64062C59.8646 1.93229 59.9375 2.25 59.9375 2.59375C59.9375 2.92708 59.8646 3.24479 59.7188 3.54688C59.5833 3.83854 59.3854 4.09896 59.125 4.32812C58.8646 4.54688 58.5469 4.72396 58.1719 4.85938C57.8073 4.98438 57.3906 5.04688 56.9219 5.04688ZM54.6094 7.5625H59.2344V26H54.6094V7.5625ZM65.1719 7.5625H69.7969V9.125C71.026 8.42708 72.1979 7.9375 73.3125 7.65625C74.4375 7.375 75.5365 7.23438 76.6094 7.23438C78.0156 7.23438 79.3177 7.44271 80.5156 7.85938C81.7135 8.26562 82.75 8.875 83.625 9.6875C84.5 10.5 85.1823 11.5156 85.6719 12.7344C86.1719 13.9427 86.4219 15.3438 86.4219 16.9375V26H81.8125V17.6875C81.8125 16.6771 81.6667 15.776 81.375 14.9844C81.0938 14.1823 80.6823 13.5104 80.1406 12.9688C79.6094 12.4167 78.9583 12 78.1875 11.7188C77.4271 11.4271 76.5729 11.2812 75.625 11.2812C75.125 11.2812 74.6094 11.3333 74.0781 11.4375C73.5573 11.5417 73.0417 11.6927 72.5312 11.8906C72.0312 12.0781 71.5469 12.3177 71.0781 12.6094C70.6094 12.8906 70.1823 13.2135 69.7969 13.5781V26H65.1719V7.5625Z" fill="black"/>
</svg>
