<svg width="503" height="500" viewBox="0 0 503 500" fill="none" xmlns="http://www.w3.org/2000/svg">
<circle cx="251" cy="250" r="198" fill="url(#paint0_linear_403_23)" stroke="#352208" stroke-width="4"/>
<path d="M424.5 343.5C372.263 343.5 331.079 347.486 287.5 364C243.921 380.514 202.974 407.446 182.5 435L200.5 440.5C218.927 415.701 253.779 394.863 293 380C332.221 365.137 367.987 359 415 359L424.5 343.5Z" fill="#FAA613" stroke="#352208"/>
<path d="M84.0045 354.078C110.123 308.839 127.263 271.18 134.751 225.183C142.239 179.185 139.389 130.259 125.763 98.75L112 111.588C124.263 139.946 124.883 180.548 118.145 221.946C111.406 263.344 98.8378 297.386 75.3311 338.101L84.0045 354.078Z" fill="#FAA613" stroke="#352208"/>
<path d="M246 52.5C272.119 97.7387 296.162 131.412 332.253 160.895C368.345 190.379 412.141 212.374 446.241 216.328L442.004 197.99C411.314 194.431 375.842 174.667 343.36 148.132C310.878 121.597 287.68 93.6921 264.173 52.9772L246 52.5Z" fill="#FAA613" stroke="#352208"/>
<g filter="url(#filter0_d_403_23)">
<mask id="path-5-inside-1_403_23" fill="white">
<path fill-rule="evenodd" clip-rule="evenodd" d="M256.722 267.072C258.124 273.335 257.811 280.058 255.453 286.537C248.883 304.588 228.923 313.895 210.872 307.325C198.934 302.98 190.82 292.778 188.594 281.146L179.364 285.184C178.369 285.619 177.209 285.181 176.75 284.197L175.632 281.799C175.167 280.801 175.596 279.615 176.592 279.145L187.988 273.772C188.08 270.102 188.759 266.384 190.084 262.744C193.525 253.289 200.64 246.233 209.23 242.601C209.295 242.562 209.364 242.526 209.435 242.494L305.596 198.798C306.592 198.345 307.768 198.778 308.233 199.768L321.777 228.586C322.224 229.537 321.859 230.671 320.943 231.183L256.722 267.072ZM216.225 292.617C206.297 289.003 201.178 278.026 204.792 268.097C208.405 258.169 219.383 253.05 229.311 256.664C239.239 260.277 244.358 271.255 240.745 281.183C237.131 291.111 226.154 296.23 216.225 292.617ZM220.239 222.907C219.609 223.348 219.457 224.216 219.897 224.845L223.089 229.404C223.53 230.033 224.398 230.186 225.027 229.746C225.656 229.305 225.809 228.437 225.369 227.808L222.177 223.249C221.736 222.62 220.868 222.467 220.239 222.907ZM226.207 221.29C225.882 220.594 226.184 219.766 226.88 219.441C227.576 219.116 228.404 219.418 228.729 220.114L231.081 225.158C231.406 225.854 231.104 226.682 230.408 227.007C229.712 227.332 228.884 227.03 228.559 226.334L226.207 221.29ZM233.332 216.41C232.59 216.608 232.149 217.371 232.348 218.114L233.788 223.489C233.987 224.231 234.75 224.672 235.492 224.473C236.235 224.274 236.675 223.511 236.476 222.769L235.036 217.393C234.837 216.651 234.074 216.211 233.332 216.41Z"/>
</mask>
<path fill-rule="evenodd" clip-rule="evenodd" d="M256.722 267.072C258.124 273.335 257.811 280.058 255.453 286.537C248.883 304.588 228.923 313.895 210.872 307.325C198.934 302.98 190.82 292.778 188.594 281.146L179.364 285.184C178.369 285.619 177.209 285.181 176.75 284.197L175.632 281.799C175.167 280.801 175.596 279.615 176.592 279.145L187.988 273.772C188.08 270.102 188.759 266.384 190.084 262.744C193.525 253.289 200.64 246.233 209.23 242.601C209.295 242.562 209.364 242.526 209.435 242.494L305.596 198.798C306.592 198.345 307.768 198.778 308.233 199.768L321.777 228.586C322.224 229.537 321.859 230.671 320.943 231.183L256.722 267.072ZM216.225 292.617C206.297 289.003 201.178 278.026 204.792 268.097C208.405 258.169 219.383 253.05 229.311 256.664C239.239 260.277 244.358 271.255 240.745 281.183C237.131 291.111 226.154 296.23 216.225 292.617ZM220.239 222.907C219.609 223.348 219.457 224.216 219.897 224.845L223.089 229.404C223.53 230.033 224.398 230.186 225.027 229.746C225.656 229.305 225.809 228.437 225.369 227.808L222.177 223.249C221.736 222.62 220.868 222.467 220.239 222.907ZM226.207 221.29C225.882 220.594 226.184 219.766 226.88 219.441C227.576 219.116 228.404 219.418 228.729 220.114L231.081 225.158C231.406 225.854 231.104 226.682 230.408 227.007C229.712 227.332 228.884 227.03 228.559 226.334L226.207 221.29ZM233.332 216.41C232.59 216.608 232.149 217.371 232.348 218.114L233.788 223.489C233.987 224.231 234.75 224.672 235.492 224.473C236.235 224.274 236.675 223.511 236.476 222.769L235.036 217.393C234.837 216.651 234.074 216.211 233.332 216.41Z" fill="#FAA613"/>
<path d="M256.722 267.072L255.746 265.326L254.444 266.054L254.77 267.509L256.722 267.072ZM188.594 281.146L190.559 280.77L190.088 278.309L187.793 279.313L188.594 281.146ZM179.364 285.184L178.563 283.352L178.563 283.352L179.364 285.184ZM176.75 284.197L178.563 283.352L178.563 283.352L176.75 284.197ZM175.632 281.799L173.819 282.644L173.819 282.644L175.632 281.799ZM176.592 279.145L177.445 280.954L177.445 280.954L176.592 279.145ZM187.988 273.772L188.841 275.581L189.956 275.055L189.987 273.822L187.988 273.772ZM209.23 242.601L210.009 244.443L210.134 244.39L210.25 244.321L209.23 242.601ZM209.435 242.494L208.608 240.673L208.608 240.673L209.435 242.494ZM305.596 198.798L306.423 200.619L306.423 200.619L305.596 198.798ZM308.233 199.768L310.043 198.918L310.043 198.918L308.233 199.768ZM321.777 228.586L323.587 227.736L323.587 227.736L321.777 228.586ZM320.943 231.183L321.918 232.929L321.919 232.929L320.943 231.183ZM219.897 224.845L218.259 225.992L218.259 225.992L219.897 224.845ZM220.239 222.907L219.092 221.269L219.092 221.269L220.239 222.907ZM223.089 229.404L224.728 228.257L224.728 228.257L223.089 229.404ZM225.027 229.746L226.174 231.384L226.174 231.384L225.027 229.746ZM225.369 227.808L227.007 226.661L227.007 226.661L225.369 227.808ZM222.177 223.249L220.538 224.396L220.538 224.396L222.177 223.249ZM226.88 219.441L226.035 217.629L226.035 217.629L226.88 219.441ZM226.207 221.29L228.02 220.445L228.02 220.445L226.207 221.29ZM228.729 220.114L230.542 219.269L230.542 219.269L228.729 220.114ZM231.081 225.158L229.268 226.003L229.268 226.003L231.081 225.158ZM228.559 226.334L226.746 227.179L226.746 227.179L228.559 226.334ZM232.348 218.114L234.28 217.596L234.28 217.596L232.348 218.114ZM233.332 216.41L232.814 214.478L232.814 214.478L233.332 216.41ZM233.788 223.489L231.857 224.007L231.857 224.007L233.788 223.489ZM235.492 224.473L234.975 222.541L234.975 222.541L235.492 224.473ZM236.476 222.769L234.544 223.287L234.544 223.287L236.476 222.769ZM235.036 217.393L236.968 216.876L236.968 216.876L235.036 217.393ZM257.332 287.221C259.825 280.373 260.156 273.259 258.673 266.635L254.77 267.509C256.091 273.41 255.797 279.744 253.574 285.853L257.332 287.221ZM210.188 309.204C229.277 316.152 250.384 306.31 257.332 287.221L253.574 285.853C247.381 302.866 228.569 311.638 211.556 305.446L210.188 309.204ZM186.63 281.521C188.983 293.817 197.561 304.608 210.188 309.204L211.556 305.446C200.307 301.351 192.658 291.74 190.559 280.77L186.63 281.521ZM180.166 287.016L189.396 282.978L187.793 279.313L178.563 283.352L180.166 287.016ZM174.937 285.042C175.855 287.011 178.176 287.887 180.166 287.016L178.563 283.352L178.563 283.352L174.937 285.042ZM173.819 282.644L174.937 285.042L178.563 283.352L177.445 280.954L173.819 282.644ZM175.739 277.336C173.747 278.275 172.889 280.648 173.819 282.644L177.445 280.954L177.445 280.954L175.739 277.336ZM187.135 271.963L175.739 277.336L177.445 280.954L188.841 275.581L187.135 271.963ZM188.204 262.06C186.805 265.906 186.086 269.838 185.988 273.721L189.987 273.822C190.074 270.366 190.713 266.862 191.963 263.428L188.204 262.06ZM208.451 240.759C199.371 244.598 191.844 252.061 188.204 262.06L191.963 263.428C195.207 254.517 201.909 247.868 210.009 244.443L208.451 240.759ZM208.608 240.673C208.471 240.735 208.338 240.805 208.21 240.881L210.25 244.321C210.252 244.32 210.256 244.318 210.263 244.315L208.608 240.673ZM304.768 196.977L208.608 240.673L210.263 244.315L306.423 200.619L304.768 196.977ZM310.043 198.918C309.112 196.936 306.761 196.072 304.768 196.977L306.423 200.619L306.423 200.619L310.043 198.918ZM323.587 227.736L310.043 198.918L306.423 200.619L319.967 229.437L323.587 227.736ZM321.919 232.929C323.752 231.904 324.481 229.636 323.587 227.736L319.967 229.437L319.967 229.437L321.919 232.929ZM257.697 268.818L321.918 232.929L319.967 229.437L255.746 265.326L257.697 268.818ZM202.912 267.413C198.921 278.379 204.575 290.505 215.541 294.496L216.909 290.737C208.019 287.502 203.435 277.672 206.671 268.781L202.912 267.413ZM229.995 254.784C219.029 250.793 206.904 256.447 202.912 267.413L206.671 268.781C209.907 259.891 219.737 255.307 228.627 258.543L229.995 254.784ZM242.624 281.867C246.616 270.901 240.961 258.776 229.995 254.784L228.627 258.543C237.517 261.779 242.101 271.609 238.866 280.499L242.624 281.867ZM215.541 294.496C226.508 298.488 238.633 292.833 242.624 281.867L238.866 280.499C235.63 289.389 225.8 293.973 216.909 290.737L215.541 294.496ZM221.536 223.698C221.728 223.973 221.661 224.353 221.386 224.546L219.092 221.269C217.558 222.343 217.185 224.458 218.259 225.992L221.536 223.698ZM224.728 228.257L221.536 223.698L218.259 225.992L221.451 230.551L224.728 228.257ZM223.88 228.107C224.155 227.914 224.535 227.981 224.728 228.257L221.451 230.551C222.525 232.085 224.64 232.458 226.174 231.384L223.88 228.107ZM223.73 228.955C223.538 228.68 223.604 228.3 223.88 228.107L226.174 231.384C227.708 230.31 228.081 228.195 227.007 226.661L223.73 228.955ZM220.538 224.396L223.73 228.955L227.007 226.661L223.815 222.102L220.538 224.396ZM221.386 224.546C221.111 224.739 220.731 224.672 220.538 224.396L223.815 222.102C222.741 220.568 220.626 220.195 219.092 221.269L221.386 224.546ZM226.035 217.629C224.337 218.42 223.603 220.438 224.394 222.135L228.02 220.445C228.162 220.75 228.03 221.112 227.725 221.254L226.035 217.629ZM230.542 219.269C229.75 217.571 227.732 216.837 226.035 217.629L227.725 221.254C227.421 221.396 227.058 221.264 226.916 220.959L230.542 219.269ZM232.894 224.313L230.542 219.269L226.916 220.959L229.268 226.003L232.894 224.313ZM231.253 228.819C232.951 228.028 233.685 226.01 232.894 224.313L229.268 226.003C229.126 225.698 229.258 225.336 229.563 225.194L231.253 228.819ZM226.746 227.179C227.538 228.877 229.556 229.611 231.253 228.819L229.563 225.194C229.867 225.052 230.23 225.184 230.372 225.489L226.746 227.179ZM224.394 222.135L226.746 227.179L230.372 225.489L228.02 220.445L224.394 222.135ZM234.28 217.596C234.367 217.921 234.174 218.254 233.85 218.341L232.814 214.478C231.005 214.963 229.932 216.822 230.416 218.631L234.28 217.596ZM235.72 222.971L234.28 217.596L230.416 218.631L231.857 224.007L235.72 222.971ZM234.975 222.541C235.3 222.454 235.633 222.647 235.72 222.971L231.857 224.007C232.341 225.816 234.201 226.89 236.01 226.405L234.975 222.541ZM234.544 223.287C234.457 222.962 234.65 222.628 234.975 222.541L236.01 226.405C237.819 225.92 238.893 224.06 238.408 222.251L234.544 223.287ZM233.104 217.911L234.544 223.287L238.408 222.251L236.968 216.876L233.104 217.911ZM233.85 218.341C233.525 218.428 233.191 218.236 233.104 217.911L236.968 216.876C236.483 215.067 234.623 213.993 232.814 214.478L233.85 218.341Z" fill="#352208" mask="url(#path-5-inside-1_403_23)"/>
<rect x="239.167" y="228.789" width="3.47822" height="13.9129" transform="rotate(65 239.167 228.789)" fill="#F2F2F2"/>
</g>
<defs>
<filter id="filter0_d_403_23" x="173.444" y="198.619" width="154.523" height="118.813" filterUnits="userSpaceOnUse" color-interpolation-filters="sRGB">
<feFlood flood-opacity="0" result="BackgroundImageFix"/>
<feColorMatrix in="SourceAlpha" type="matrix" values="0 0 0 0 0 0 0 0 0 0 0 0 0 0 0 0 0 0 127 0" result="hardAlpha"/>
<feOffset dx="2" dy="4"/>
<feGaussianBlur stdDeviation="2"/>
<feComposite in2="hardAlpha" operator="out"/>
<feColorMatrix type="matrix" values="0 0 0 0 0 0 0 0 0 0 0 0 0 0 0 0 0 0 0.25 0"/>
<feBlend mode="normal" in2="BackgroundImageFix" result="effect1_dropShadow_403_23"/>
<feBlend mode="normal" in="SourceGraphic" in2="effect1_dropShadow_403_23" result="shape"/>
</filter>
<linearGradient id="paint0_linear_403_23" x1="173" y1="63.5" x2="308" y2="434.5" gradientUnits="userSpaceOnUse">
<stop stop-color="white"/>
<stop offset="1" stop-color="#E6E6E6"/>
</linearGradient>
</defs>
</svg>
