<svg width="80" height="64" viewBox="0 0 80 64" fill="none" xmlns="http://www.w3.org/2000/svg">
<path d="M6.49137 20.7724C3.27172 10.4695 10.9688 0 21.7631 0H58.2369C69.0312 0 76.7283 10.4695 73.5086 20.7724L63.5086 52.7724C61.4212 59.452 55.2351 64 48.2369 64H31.7631C24.7649 64 18.5788 59.452 16.4914 52.7724L6.49137 20.7724Z" fill="url(#paint0_radial_406_227)"/>
<path d="M52 36C52 46.2173 44.9706 49 40 49C35.0294 49 28 46.2173 28 36C28 25.7827 36.0294 12 41 12C41 23 52 25.7827 52 36Z" fill="#BDE5FB"/>
<path d="M50 36.2C50 44.3738 43.5765 46.6 39.6 46.6C35.6235 46.6 30 44.3738 30 36.2C30 28.0262 35.6235 15.5 39.6 15.5C40.5 24 50 28.0262 50 36.2Z" fill="#365BDE"/>
<defs>
<radialGradient id="paint0_radial_406_227" cx="0" cy="0" r="1" gradientUnits="userSpaceOnUse" gradientTransform="translate(40 32) rotate(90) scale(32 40)">
<stop stop-color="#6FA22E"/>
<stop offset="0.723958" stop-color="#9A602A"/>
</radialGradient>
</defs>
</svg>
