<svg width="33" height="29" viewBox="0 0 33 29" fill="none" xmlns="http://www.w3.org/2000/svg">
<path d="M0.335938 1.34375H7.27344V3.6875C9.11719 2.64062 10.875 1.90625 12.5469 1.48438C14.2344 1.0625 15.8828 0.851562 17.4922 0.851562C19.6016 0.851562 21.5547 1.16406 23.3516 1.78906C25.1484 2.39844 26.7031 3.3125 28.0156 4.53125C29.3281 5.75 30.3516 7.27344 31.0859 9.10156C31.8359 10.9141 32.2109 13.0156 32.2109 15.4062V29H25.2969V16.5312C25.2969 15.0156 25.0781 13.6641 24.6406 12.4766C24.2188 11.2734 23.6016 10.2656 22.7891 9.45312C21.9922 8.625 21.0156 8 19.8594 7.57812C18.7188 7.14062 17.4375 6.92188 16.0156 6.92188C15.2656 6.92188 14.4922 7 13.6953 7.15625C12.9141 7.3125 12.1406 7.53906 11.375 7.83594C10.625 8.11719 9.89844 8.47656 9.19531 8.91406C8.49219 9.33594 7.85156 9.82031 7.27344 10.3672V29H0.335938V1.34375Z" fill="#9D50D7"/>
</svg>
