<svg width="100" height="158" viewBox="0 0 100 158" fill="none" xmlns="http://www.w3.org/2000/svg">
<path d="M100 108C100 114.566 98.7067 121.068 96.194 127.134C93.6812 133.2 89.9983 138.712 85.3553 143.355C80.7124 147.998 75.2004 151.681 69.1342 154.194C63.0679 156.707 56.5661 158 50 158L50 140.105C54.2161 140.105 58.391 139.275 62.2862 137.662C66.1814 136.048 69.7207 133.683 72.702 130.702C75.6832 127.721 78.0481 124.181 79.6615 120.286C81.275 116.391 82.1054 112.216 82.1054 108H100Z" fill="url(#paint0_linear_101_229)"/>
<path d="M50 158C43.4339 158 36.9321 156.707 30.8658 154.194C24.7995 151.681 19.2876 147.998 14.6447 143.355C10.0017 138.712 6.31875 133.2 3.80602 127.134C1.29328 121.068 -2.1395e-06 114.566 0 108L17.8946 108C17.8946 112.216 18.725 116.391 20.3385 120.286C21.9519 124.181 24.3168 127.721 27.298 130.702C30.2793 133.683 33.8186 136.048 37.7138 137.662C41.609 139.275 45.7839 140.105 50 140.105L50 158Z" fill="url(#paint1_linear_101_229)"/>
<path d="M0 50C5.74026e-07 43.4339 1.29329 36.9321 3.80603 30.8658C6.31876 24.7995 10.0017 19.2876 14.6447 14.6447C19.2876 10.0017 24.7996 6.31876 30.8658 3.80602C36.9321 1.29329 43.4339 -8.61039e-07 50 0C56.5661 8.6104e-07 63.0679 1.29329 69.1342 3.80603C75.2005 6.31876 80.7124 10.0017 85.3553 14.6447C89.9983 19.2876 93.6812 24.7996 96.194 30.8658C98.7067 36.9321 100 43.4339 100 50L81.9432 50C81.9432 45.8052 81.117 41.6514 79.5117 37.7759C77.9064 33.9004 75.5534 30.379 72.5872 27.4128C69.621 24.4466 66.0997 22.0936 62.2241 20.4883C58.3486 18.8831 54.1948 18.0568 50 18.0568C45.8052 18.0568 41.6514 18.883 37.7759 20.4883C33.9003 22.0936 30.379 24.4466 27.4128 27.4128C24.4466 30.379 22.0936 33.9003 20.4883 37.7759C18.8831 41.6514 18.0568 45.8052 18.0568 50H0Z" fill="url(#paint2_linear_101_229)"/>
<rect y="50" width="18" height="58" fill="url(#paint3_linear_101_229)"/>
<path d="M50 158C40.1109 158 30.4439 155.068 22.2215 149.573C13.999 144.079 7.5904 136.27 3.80602 127.134C0.0216408 117.998 -0.968525 107.945 0.960737 98.2455C2.89 88.5464 7.65204 79.6373 14.6447 72.6447C21.6373 65.652 30.5464 60.89 40.2455 58.9607C49.9445 57.0315 59.9979 58.0216 69.1342 61.806C78.2705 65.5904 86.0794 71.999 91.5735 80.2215C97.0676 88.444 100 98.1109 100 108L82.3081 108C82.3081 101.61 80.4133 95.3636 76.8632 90.0506C73.3132 84.7375 68.2673 80.5965 62.3638 78.1512C56.4603 75.7059 49.9642 75.0661 43.697 76.3127C37.4298 77.5593 31.6731 80.6363 27.1547 85.1547C22.6363 89.6731 19.5593 95.4298 18.3127 101.697C17.0661 107.964 17.7059 114.46 20.1512 120.364C22.5965 126.267 26.7375 131.313 32.0506 134.863C37.3636 138.413 43.6101 140.308 50 140.308L50 158Z" fill="url(#paint4_angular_101_229)"/>
<rect x="82" y="50" width="18" height="58" fill="url(#paint5_linear_101_229)"/>
<circle cx="50" cy="108" r="10" fill="#373F51"/>
<defs>
<linearGradient id="paint0_linear_101_229" x1="50" y1="58" x2="50" y2="158" gradientUnits="userSpaceOnUse">
<stop offset="0.500438" stop-color="#F3DE8A" stop-opacity="0.9"/>
<stop offset="1" stop-color="#F3DE8A"/>
</linearGradient>
<linearGradient id="paint1_linear_101_229" x1="50" y1="58" x2="50" y2="158" gradientUnits="userSpaceOnUse">
<stop offset="0.500438" stop-color="#F3DE8A" stop-opacity="0.5"/>
<stop offset="1" stop-color="#F3DE8A" stop-opacity="0.3"/>
</linearGradient>
<linearGradient id="paint2_linear_101_229" x1="100" y1="50" x2="7" y2="50" gradientUnits="userSpaceOnUse">
<stop stop-color="#F3DE8A" stop-opacity="0.8"/>
<stop offset="1" stop-color="#F3DE8A" stop-opacity="0.6"/>
</linearGradient>
<linearGradient id="paint3_linear_101_229" x1="9" y1="50" x2="9" y2="108" gradientUnits="userSpaceOnUse">
<stop stop-color="#F3DE8A" stop-opacity="0.6"/>
<stop offset="1" stop-color="#F3DE8A" stop-opacity="0.5"/>
</linearGradient>
<radialGradient id="paint4_angular_101_229" cx="0" cy="0" r="1" gradientUnits="userSpaceOnUse" gradientTransform="translate(50 108) rotate(90) scale(50)">
<stop stop-color="#58A4B0"/>
<stop offset="1" stop-color="#58A4B0" stop-opacity="0"/>
</radialGradient>
<linearGradient id="paint5_linear_101_229" x1="91" y1="50" x2="91" y2="108" gradientUnits="userSpaceOnUse">
<stop stop-color="#F3DE8A" stop-opacity="0.8"/>
<stop offset="1" stop-color="#F3DE8A" stop-opacity="0.9"/>
</linearGradient>
</defs>
</svg>
